<svg width="92" height="92" viewBox="0 0 92 92" fill="none" xmlns="http://www.w3.org/2000/svg">
<path fill-rule="evenodd" clip-rule="evenodd" d="M83.7725 32.6013L87.0487 35.8764C89.6424 38.4236 91.053 41.8806 91.053 45.5195C91.0985 49.1584 89.6879 52.6199 87.1398 55.2081C87.1094 55.2414 87.0791 55.2708 87.0487 55.3001C87.0336 55.3147 87.0184 55.3294 87.0032 55.3445L83.7725 58.5741C82.4985 59.8477 81.7704 61.5762 81.7704 63.4002V68.0807C81.7704 75.6315 75.6275 81.7767 68.074 81.7767H63.3872C61.5671 81.7767 59.838 82.4999 58.5639 83.7735L55.2877 87.0485C52.6031 89.7368 49.0993 91.0514 45.5956 91.0514C42.0919 91.0514 38.5882 89.7368 35.9035 87.0986L32.5818 83.7735C31.3077 82.4999 29.5786 81.7767 27.7585 81.7767H23.0717C15.5182 81.7767 9.37533 75.6315 9.37533 68.0807V63.4002C9.37533 61.5762 8.64729 59.8477 7.37321 58.5286L4.097 55.2991C-1.22684 49.9817 -1.27234 41.2892 4.0515 35.9264L7.37321 32.6013C8.64729 31.3277 9.37533 29.5993 9.37533 27.7343V23.0947C9.37533 15.544 15.5182 9.40784 23.0717 9.40784H27.7585C29.5786 9.40784 31.3077 8.67551 32.5818 7.40189L35.858 4.12687C41.1818 -1.23597 49.8729 -1.23597 55.2422 4.08594L58.5639 7.40189C59.838 8.67551 61.5671 9.40784 63.3872 9.40784H68.074C75.6275 9.40784 81.7704 15.544 81.7704 23.0947V27.7843C81.7704 29.5992 82.4985 31.3277 83.7725 32.6013ZM33.856 61.2583C34.9481 61.2583 35.9491 60.849 36.6772 60.0757L60.0656 36.7002C61.6127 35.1537 61.6127 32.6019 60.0656 31.0554C58.5185 29.5134 56.0159 29.5134 54.4688 31.0554L31.0803 54.4354C29.5332 55.9819 29.5332 58.5292 31.0803 60.0757C31.8084 60.849 32.8094 61.2583 33.856 61.2583ZM53.2859 57.2559C53.2859 59.4847 55.0605 61.2587 57.2901 61.2587C59.4743 61.2587 61.2489 59.4847 61.2489 57.2559C61.2489 55.0771 59.4743 53.2985 57.2901 53.2985C55.0605 53.2985 53.2859 55.0771 53.2859 57.2559ZM33.9013 29.9179C36.0854 29.9179 37.86 31.6919 37.86 33.8752C37.86 36.1086 36.0854 37.878 33.9013 37.878C31.7171 37.878 29.897 36.1086 29.897 33.8752C29.897 31.6919 31.7171 29.9179 33.9013 29.9179Z" fill="url(#paint0_linear_177_23)"/>
<defs>
<linearGradient id="paint0_linear_177_23" x1="-4.74301" y1="0.0996062" x2="123.893" y2="18.0948" gradientUnits="userSpaceOnUse">
<stop stop-color="#62A1FF"/>
<stop offset="1" stop-color="#0066FF"/>
</linearGradient>
</defs>
</svg>
