<svg width="22" height="22" viewBox="0 0 22 22" fill="none" xmlns="http://www.w3.org/2000/svg">
<path d="M14.4926 18.4983C14.2542 18.4983 14.0067 18.4891 13.7409 18.4616C13.2642 18.425 12.7234 18.3333 12.1642 18.1958L10.6242 17.8291C6.3984 16.83 5.01423 14.5933 6.00423 10.3766L6.90257 6.53581C7.10423 5.66497 7.34257 4.95914 7.6359 4.37247C9.21257 1.11831 12.2284 1.41164 14.3734 1.91581L15.9042 2.27331C18.0492 2.77747 19.4059 3.57497 20.1667 4.79414C20.9184 6.01331 21.0376 7.58081 20.5334 9.72581L19.6351 13.5575C18.8467 16.9125 17.2059 18.4983 14.4926 18.4983ZM12.0267 2.97914C10.4959 2.97914 9.52423 3.61164 8.8734 4.96831C8.63507 5.46331 8.42423 6.07747 8.2409 6.84747L7.34257 10.6883C6.52673 14.1533 7.4709 15.6658 10.9359 16.4908L12.4759 16.8575C12.9709 16.9766 13.4384 17.05 13.8601 17.0866C16.3534 17.3341 17.5909 16.2433 18.2876 13.2458L19.1859 9.41414C19.5984 7.64497 19.5434 6.40747 18.9934 5.51831C18.4434 4.62914 17.3617 4.02414 15.5834 3.61164L14.0526 3.25414C13.2917 3.07081 12.6134 2.97914 12.0267 2.97914Z" fill="white"/>
<path d="M7.6358 20.3958C5.27997 20.3958 3.77663 18.9841 2.81413 16.005L1.6408 12.3841C0.339133 8.35079 1.5033 6.07745 5.5183 4.77579L6.96663 4.30829C7.4433 4.16162 7.8008 4.06079 8.12163 4.00579C8.38747 3.95079 8.64413 4.05162 8.79997 4.26245C8.9558 4.47329 8.9833 4.74829 8.8733 4.98662C8.63497 5.47245 8.42413 6.08662 8.24997 6.85662L7.35163 10.6975C6.5358 14.1625 7.47997 15.675 10.945 16.5L12.485 16.8666C12.98 16.9858 13.4475 17.0591 13.8691 17.0958C14.1625 17.1233 14.4008 17.325 14.4833 17.6091C14.5566 17.8933 14.4466 18.1866 14.2083 18.3516C13.6033 18.7641 12.8425 19.1125 11.88 19.4241L10.4316 19.9008C9.37747 20.2308 8.4608 20.3958 7.6358 20.3958ZM7.13163 5.70162L5.94913 6.08662C2.67663 7.14079 1.89747 8.68079 2.95163 11.9625L4.12497 15.5833C5.1883 18.8558 6.7283 19.6441 10.0008 18.59L11.4491 18.1133C11.5041 18.095 11.55 18.0766 11.605 18.0583L10.6333 17.8291C6.40747 16.83 5.0233 14.5933 6.0133 10.3766L6.91163 6.53579C6.9758 6.24245 7.04913 5.95829 7.13163 5.70162Z" fill="white"/>
<path d="M16.0325 9.63421C15.9775 9.63421 15.9225 9.62504 15.8583 9.61587L11.4125 8.48837C11.0458 8.39671 10.8258 8.02087 10.9175 7.65421C11.0092 7.28754 11.385 7.06754 11.7517 7.15921L16.1975 8.28671C16.5642 8.37837 16.7842 8.75421 16.6925 9.12087C16.6192 9.42337 16.335 9.63421 16.0325 9.63421Z" fill="white"/>
<path d="M13.3467 12.7324C13.2917 12.7324 13.2367 12.7232 13.1725 12.7141L10.505 12.0357C10.1384 11.9441 9.91837 11.5682 10.01 11.2016C10.1017 10.8349 10.4775 10.6149 10.8442 10.7066L13.5117 11.3849C13.8784 11.4766 14.0984 11.8524 14.0067 12.2191C13.9334 12.5307 13.6584 12.7324 13.3467 12.7324Z" fill="white"/>
</svg>
