<svg width="111" height="110" viewBox="0 0 111 110" fill="none" xmlns="http://www.w3.org/2000/svg">
<path d="M66.5683 24.9713C64.4029 24.5713 62.4143 25.9531 62.002 28.0668C61.5898 30.1804 62.976 32.2441 65.0824 32.6577C71.4244 33.8941 76.3213 38.8033 77.5626 45.167V45.1715C77.9159 47.0034 79.5286 48.3352 81.3859 48.3352C81.635 48.3352 81.8842 48.3125 82.1379 48.267C84.2443 47.8443 85.6305 45.7852 85.2183 43.667C83.3655 34.1623 76.0495 26.8213 66.5683 24.9713Z" fill="#130F26"/>
<path d="M66.5683 24.9713C64.4029 24.5713 62.4143 25.9531 62.002 28.0668C61.5898 30.1804 62.976 32.2441 65.0824 32.6577C71.4244 33.8941 76.3213 38.8033 77.5626 45.167V45.1715C77.9159 47.0034 79.5286 48.3352 81.3859 48.3352C81.635 48.3352 81.8842 48.3125 82.1379 48.267C84.2443 47.8443 85.6305 45.7852 85.2183 43.667C83.3655 34.1623 76.0495 26.8213 66.5683 24.9713Z" fill="url(#paint0_linear_88_3332)"/>
<path d="M66.2852 9.13275C65.2704 8.98729 64.2512 9.2873 63.4403 9.93276C62.6068 10.5873 62.0858 11.5328 61.9726 12.5919C61.7325 14.7328 63.2772 16.6692 65.4154 16.9101C80.1605 18.5556 91.6214 30.0421 93.2794 44.8332C93.5014 46.8151 95.1639 48.3106 97.148 48.3106C97.2975 48.3106 97.4425 48.3015 97.592 48.2833C98.6293 48.1696 99.5534 47.656 100.206 46.8378C100.854 46.0196 101.148 45.0014 101.03 43.9605C98.9645 25.5057 84.6815 11.1828 66.2852 9.13275Z" fill="#130F26"/>
<path d="M66.2852 9.13275C65.2704 8.98729 64.2512 9.2873 63.4403 9.93276C62.6068 10.5873 62.0858 11.5328 61.9726 12.5919C61.7325 14.7328 63.2772 16.6692 65.4154 16.9101C80.1605 18.5556 91.6214 30.0421 93.2794 44.8332C93.5014 46.8151 95.1639 48.3106 97.148 48.3106C97.2975 48.3106 97.4425 48.3015 97.592 48.2833C98.6293 48.1696 99.5534 47.656 100.206 46.8378C100.854 46.0196 101.148 45.0014 101.03 43.9605C98.9645 25.5057 84.6815 11.1828 66.2852 9.13275Z" fill="url(#paint1_linear_88_3332)"/>
<path fill-rule="evenodd" clip-rule="evenodd" d="M51.1639 59.0068C69.3088 77.1466 73.4251 56.1608 84.9781 67.7057C96.116 78.8405 102.517 81.0714 88.4059 95.1791C86.6383 96.5996 75.4076 113.69 35.939 74.2323C-3.53446 34.7699 13.546 23.5277 14.9669 21.7605C29.1127 7.6138 31.3051 14.0526 42.443 25.1874C53.996 36.7371 33.019 40.8669 51.1639 59.0068Z" fill="#130F26"/>
<path fill-rule="evenodd" clip-rule="evenodd" d="M51.1639 59.0068C69.3088 77.1466 73.4251 56.1608 84.9781 67.7057C96.116 78.8405 102.517 81.0714 88.4059 95.1791C86.6383 96.5996 75.4076 113.69 35.939 74.2323C-3.53446 34.7699 13.546 23.5277 14.9669 21.7605C29.1127 7.6138 31.3051 14.0526 42.443 25.1874C53.996 36.7371 33.019 40.8669 51.1639 59.0068Z" fill="url(#paint2_linear_88_3332)"/>
<defs>
<linearGradient id="paint0_linear_88_3332" x1="60.6906" y1="24.9023" x2="93.7279" y2="29.5089" gradientUnits="userSpaceOnUse">
<stop stop-color="#62A1FF"/>
<stop offset="1" stop-color="#0066FF"/>
</linearGradient>
<linearGradient id="paint1_linear_88_3332" x1="59.8741" y1="9.09668" x2="115.179" y2="16.8107" gradientUnits="userSpaceOnUse">
<stop stop-color="#62A1FF"/>
<stop offset="1" stop-color="#0066FF"/>
</linearGradient>
<linearGradient id="paint2_linear_88_3332" x1="5.49869" y1="13.646" x2="127.704" y2="30.7377" gradientUnits="userSpaceOnUse">
<stop stop-color="#62A1FF"/>
<stop offset="1" stop-color="#0066FF"/>
</linearGradient>
</defs>
</svg>
