<svg width="34" height="34" viewBox="0 0 34 34" fill="none" xmlns="http://www.w3.org/2000/svg">
<path d="M11.3333 31.6198C10.9366 31.6198 10.5257 31.5207 10.1574 31.3224C9.34989 30.8974 8.85409 30.0473 8.85409 29.1406V27.1291C4.57575 26.6899 1.77075 23.5448 1.77075 19.0398V10.5399C1.77075 5.66654 5.04325 2.39404 9.91659 2.39404H24.0833C28.9566 2.39404 32.2291 5.66654 32.2291 10.5399V19.0398C32.2291 23.9131 28.9566 27.1856 24.0833 27.1856H18.7424L12.7074 31.2091C12.2965 31.4782 11.8149 31.6198 11.3333 31.6198ZM9.91659 4.50486C6.26159 4.50486 3.89575 6.8707 3.89575 10.5257V19.0258C3.89575 22.6808 6.26159 25.0466 9.91659 25.0466C10.4974 25.0466 10.9791 25.5283 10.9791 26.1091V29.1266C10.9791 29.3108 11.0924 29.3957 11.1633 29.4382C11.2341 29.4807 11.3758 29.5232 11.5316 29.4241L17.8358 25.2308C18.0058 25.1175 18.2183 25.0466 18.4308 25.0466H24.0974C27.7524 25.0466 30.1183 22.6808 30.1183 19.0258V10.5257C30.1183 6.8707 27.7524 4.50486 24.0974 4.50486H9.91659V4.50486Z" fill="white"/>
<path d="M16.9998 17.1558C16.419 17.1558 15.9373 16.6741 15.9373 16.0933V15.7958C15.9373 14.1525 17.1415 13.345 17.5948 13.0333C18.119 12.6791 18.289 12.4383 18.289 12.07C18.289 11.3616 17.7082 10.7808 16.9998 10.7808C16.2915 10.7808 15.7107 11.3616 15.7107 12.07C15.7107 12.6508 15.229 13.1325 14.6482 13.1325C14.0674 13.1325 13.5857 12.6508 13.5857 12.07C13.5857 10.1858 15.1157 8.65576 16.9998 8.65576C18.884 8.65576 20.414 10.1858 20.414 12.07C20.414 13.685 19.224 14.4925 18.7848 14.79C18.2323 15.1583 18.0623 15.3992 18.0623 15.7958V16.0933C18.0623 16.6883 17.5807 17.1558 16.9998 17.1558Z" fill="white"/>
<path d="M17 20.6833C16.405 20.6833 15.9375 20.2017 15.9375 19.6208C15.9375 19.04 16.4192 18.5583 17 18.5583C17.5808 18.5583 18.0625 19.04 18.0625 19.6208C18.0625 20.2017 17.595 20.6833 17 20.6833Z" fill="white"/>
</svg>
