<svg width="22" height="22" viewBox="0 0 22 22" fill="none" xmlns="http://www.w3.org/2000/svg">
<path d="M16.1884 20.7808C15.7025 20.7808 15.0792 20.625 14.3 20.1666L11.5592 18.5441C11.275 18.3791 10.725 18.3791 10.45 18.5441L7.70003 20.1666C6.07753 21.1291 5.12419 20.7441 4.69336 20.4325C4.27169 20.1208 3.61169 19.3233 4.04253 17.49L4.69336 14.6758C4.76669 14.3825 4.62003 13.8783 4.40003 13.6583L2.12669 11.385C0.990027 10.2483 1.08169 9.27663 1.23753 8.79996C1.39336 8.32329 1.88836 7.47996 3.46503 7.21413L6.38919 6.72829C6.66419 6.68246 7.05836 6.38913 7.17753 6.14163L8.80003 2.90579C9.53336 1.42996 10.4959 1.20996 11 1.20996C11.5042 1.20996 12.4667 1.42996 13.2 2.90579L14.8134 6.13246C14.9417 6.37996 15.3359 6.67329 15.6109 6.71913L18.535 7.20496C20.1209 7.47079 20.6159 8.31413 20.7625 8.79079C20.9092 9.26746 21.0009 10.2391 19.8734 11.3758L17.6 13.6583C17.38 13.8783 17.2425 14.3733 17.3067 14.6758L17.9575 17.49C18.3792 19.3233 17.7284 20.1208 17.3067 20.4325C17.0775 20.5975 16.7109 20.7808 16.1884 20.7808ZM11 17.0408C11.4492 17.0408 11.8984 17.1508 12.2559 17.3616L14.9967 18.9841C15.7942 19.4608 16.2984 19.4608 16.4909 19.3233C16.6834 19.1858 16.8209 18.7 16.6192 17.8016L15.9684 14.9875C15.7942 14.2266 16.0784 13.2458 16.6284 12.6866L18.9017 10.4133C19.3509 9.96413 19.5525 9.52413 19.4609 9.22163C19.36 8.91913 18.9384 8.67163 18.315 8.57079L15.3909 8.08496C14.685 7.96579 13.915 7.39746 13.5942 6.75579L11.9809 3.52913C11.6875 2.94246 11.3209 2.59413 11 2.59413C10.6792 2.59413 10.3125 2.94246 10.0284 3.52913L8.40586 6.75579C8.08503 7.39746 7.31503 7.96579 6.60919 8.08496L3.69419 8.57079C3.07086 8.67163 2.64919 8.91913 2.54836 9.22163C2.44753 9.52413 2.65836 9.97329 3.10753 10.4133L5.38086 12.6866C5.93086 13.2366 6.21503 14.2266 6.04086 14.9875L5.39003 17.8016C5.17919 18.7091 5.32586 19.1858 5.51836 19.3233C5.71086 19.4608 6.20586 19.4516 7.01253 18.9841L9.75336 17.3616C10.1017 17.1508 10.5509 17.0408 11 17.0408Z" fill="white"/>
</svg>
