<svg width="52" height="8" viewBox="0 0 52 8" fill="none" xmlns="http://www.w3.org/2000/svg">
<path d="M47.572 0.708924C47.7664 0.386838 48.2336 0.386838 48.428 0.708924L49.2099 2.00396C49.2797 2.11943 49.3931 2.20184 49.5245 2.23247L50.9977 2.57592C51.3641 2.66134 51.5085 3.1056 51.2623 3.39008L50.2722 4.53391C50.184 4.63591 50.1406 4.76924 50.1521 4.90365L50.2807 6.41094C50.3127 6.78582 49.9348 7.06039 49.5882 6.91413L48.1944 6.32602C48.0701 6.27358 47.9299 6.27358 47.8056 6.32602L46.4118 6.91413C46.0652 7.06039 45.6873 6.78582 45.7193 6.41095L45.8479 4.90365C45.8594 4.76924 45.816 4.63591 45.7278 4.53391L44.7377 3.39008C44.4915 3.1056 44.6359 2.66134 45.0023 2.57592L46.4755 2.23247C46.6069 2.20184 46.7203 2.11943 46.7901 2.00396L47.572 0.708924Z" fill="url(#paint0_linear_95_367)"/>
<path d="M36.572 0.708924C36.7664 0.386838 37.2336 0.386838 37.428 0.708924L38.2099 2.00396C38.2797 2.11943 38.3931 2.20184 38.5245 2.23247L39.9977 2.57592C40.3641 2.66134 40.5085 3.1056 40.2623 3.39008L39.2722 4.53391C39.184 4.63591 39.1406 4.76924 39.1521 4.90365L39.2807 6.41094C39.3127 6.78582 38.9348 7.06039 38.5882 6.91413L37.1944 6.32602C37.0701 6.27358 36.9299 6.27358 36.8056 6.32602L35.4118 6.91413C35.0652 7.06039 34.6873 6.78582 34.7193 6.41095L34.8479 4.90365C34.8594 4.76924 34.816 4.63591 34.7278 4.53391L33.7377 3.39008C33.4915 3.1056 33.6359 2.66134 34.0023 2.57592L35.4755 2.23247C35.6069 2.20184 35.7203 2.11943 35.7901 2.00396L36.572 0.708924Z" fill="url(#paint1_linear_95_367)"/>
<path d="M25.572 0.708924C25.7664 0.386838 26.2336 0.386838 26.428 0.708924L27.2099 2.00396C27.2797 2.11943 27.3931 2.20184 27.5245 2.23247L28.9977 2.57592C29.3641 2.66134 29.5085 3.1056 29.2623 3.39008L28.2722 4.53391C28.184 4.63591 28.1406 4.76924 28.1521 4.90365L28.2807 6.41094C28.3127 6.78582 27.9348 7.06039 27.5882 6.91413L26.1944 6.32602C26.0701 6.27358 25.9299 6.27358 25.8056 6.32602L24.4118 6.91413C24.0652 7.06039 23.6873 6.78582 23.7193 6.41095L23.8479 4.90365C23.8594 4.76924 23.816 4.63591 23.7278 4.53391L22.7377 3.39008C22.4915 3.1056 22.6359 2.66134 23.0023 2.57592L24.4755 2.23247C24.6069 2.20184 24.7203 2.11943 24.7901 2.00396L25.572 0.708924Z" fill="url(#paint2_linear_95_367)"/>
<path d="M14.572 0.708924C14.7664 0.386838 15.2336 0.386838 15.428 0.708924L16.2099 2.00396C16.2797 2.11943 16.3931 2.20184 16.5245 2.23247L17.9977 2.57592C18.3641 2.66134 18.5085 3.1056 18.2623 3.39008L17.2722 4.53391C17.184 4.63591 17.1406 4.76924 17.1521 4.90365L17.2807 6.41094C17.3127 6.78582 16.9348 7.06039 16.5882 6.91413L15.1944 6.32602C15.0701 6.27358 14.9299 6.27358 14.8056 6.32602L13.4118 6.91413C13.0652 7.06039 12.6873 6.78582 12.7193 6.41095L12.8479 4.90365C12.8594 4.76924 12.816 4.63591 12.7278 4.53391L11.7377 3.39008C11.4915 3.1056 11.6359 2.66134 12.0023 2.57592L13.4755 2.23247C13.6069 2.20184 13.7203 2.11943 13.7901 2.00396L14.572 0.708924Z" fill="url(#paint3_linear_95_367)"/>
<path d="M3.57197 0.708924C3.76644 0.386838 4.23356 0.386838 4.42803 0.708924L5.20994 2.00396C5.27966 2.11943 5.39309 2.20184 5.52446 2.23247L6.99773 2.57592C7.36415 2.66134 7.5085 3.1056 7.26227 3.39008L6.27224 4.53391C6.18396 4.63591 6.14064 4.76924 6.15211 4.90365L6.28073 6.41094C6.31272 6.78582 5.93481 7.06039 5.58816 6.91413L4.19438 6.32602C4.0701 6.27358 3.9299 6.27358 3.80562 6.32602L2.41184 6.91413C2.06519 7.06039 1.68728 6.78582 1.71927 6.41095L1.84789 4.90365C1.85936 4.76924 1.81604 4.63591 1.72776 4.53391L0.737731 3.39008C0.491503 3.1056 0.635854 2.66134 1.00227 2.57592L2.47554 2.23247C2.60691 2.20184 2.72034 2.11943 2.79006 2.00396L3.57197 0.708924Z" fill="url(#paint4_linear_95_367)"/>
<defs>
<linearGradient id="paint0_linear_95_367" x1="48.3077" y1="-2.15385" x2="48" y2="8" gradientUnits="userSpaceOnUse">
<stop stop-color="#EBFF00"/>
<stop offset="1" stop-color="#FFC700"/>
</linearGradient>
<linearGradient id="paint1_linear_95_367" x1="37.3077" y1="-2.15385" x2="37" y2="8" gradientUnits="userSpaceOnUse">
<stop stop-color="#EBFF00"/>
<stop offset="1" stop-color="#FFC700"/>
</linearGradient>
<linearGradient id="paint2_linear_95_367" x1="26.3077" y1="-2.15385" x2="26" y2="8" gradientUnits="userSpaceOnUse">
<stop stop-color="#EBFF00"/>
<stop offset="1" stop-color="#FFC700"/>
</linearGradient>
<linearGradient id="paint3_linear_95_367" x1="15.3077" y1="-2.15385" x2="15" y2="8" gradientUnits="userSpaceOnUse">
<stop stop-color="#EBFF00"/>
<stop offset="1" stop-color="#FFC700"/>
</linearGradient>
<linearGradient id="paint4_linear_95_367" x1="4.30769" y1="-2.15385" x2="4" y2="8" gradientUnits="userSpaceOnUse">
<stop stop-color="#EBFF00"/>
<stop offset="1" stop-color="#FFC700"/>
</linearGradient>
</defs>
</svg>
