<svg width="1920" height="2076" viewBox="0 0 1920 2076" fill="none" xmlns="http://www.w3.org/2000/svg">
<circle cx="362" cy="748" r="618" fill="#3A61FF"/>
<path fill-rule="evenodd" clip-rule="evenodd" d="M1920 1616.57C1811.68 1719.11 1665.43 1782 1504.5 1782C1170.64 1782 900 1511.36 900 1177.5C900 1121.93 907.498 1068.11 921.538 1017H0V2097H1920V1616.57Z" fill="#3A61FF"/>
<path d="M937 974.5C940.6 970.9 953.833 926.667 960 905C939.167 903.667 894.2 902.6 881 909C864.5 917 828 1006 824.5 1028.5C821 1051 911 1075 912 1058.5C913 1042 932.5 979 937 974.5Z" fill="#3B61FE"/>
</svg>
